<svg width="90" height="90" viewBox="0 0 90 90" fill="none" xmlns="http://www.w3.org/2000/svg">
<rect width="90" height="90" rx="10" fill="white"/>
<ellipse cx="45.6266" cy="60.0724" rx="15.6359" ry="15.2989" fill="#0D9D29"/>
<rect x="30.2603" y="18.3542" width="16.3099" height="39.8985" fill="#5AC451"/>
<rect x="46.5698" y="42.7516" width="0.943546" height="32.6197" fill="white"/>
<rect x="29.9907" y="59.4659" width="1.21313" height="16.9838" transform="rotate(-90 29.9907 59.4659)" fill="white"/>
<rect x="29.9907" y="30.6203" width="1.21313" height="16.4447" transform="rotate(-90 29.9907 30.6203)" fill="white"/>
<rect x="30.2603" y="44.7735" width="1.07834" height="16.3099" transform="rotate(-90 30.2603 44.7735)" fill="white"/>
<path d="M29.1248 43.5965C29.3855 43.6946 24.9374 45.4132 21.1943 44.0048C17.4512 42.5965 15.4116 38.4369 15.4116 38.4369C14.9554 38.2653 19.6817 36.8742 23.4247 38.2825C27.1678 39.6908 29.1248 43.5965 29.1248 43.5965Z" fill="#238636"/>
<path d="M54.4852 27.533C54.6255 27.4963 53.2831 29.5523 51.2684 30.079C49.2536 30.6056 47.1039 29.4625 47.1039 29.4625C46.8584 29.5267 48.4195 27.5255 50.4343 26.9988C52.449 26.4722 54.4852 27.533 54.4852 27.533Z" fill="#0DB12D"/>
<path d="M29.2336 18.8396C29.3681 18.8933 27.0365 19.7409 25.105 18.9697C23.1736 18.1985 22.1576 16.0142 22.1576 16.0142C21.9222 15.9202 24.395 15.2458 26.3264 16.017C28.2578 16.7882 29.2336 18.8396 29.2336 18.8396Z" fill="#0DB12D"/>
<path d="M55.5289 35.7538C55.689 35.8524 52.5047 36.4229 50.205 35.0062C47.9053 33.5895 47.1036 30.5635 47.1036 30.5635C46.8234 30.3909 50.1489 30.0738 52.4486 31.4905C54.7483 32.9072 55.5289 35.7538 55.5289 35.7538Z" fill="#238636"/>
<path d="M29.3615 18.9231C29.4654 18.8768 28.8335 20.9406 27.3413 21.6043C25.8491 22.268 23.8946 21.3546 23.8946 21.3546C23.7127 21.4355 24.5304 19.4062 26.0227 18.7425C27.5149 18.0788 29.3615 18.9231 29.3615 18.9231Z" fill="#238636"/>
<path d="M61.646 53.8307C61.5557 53.9939 60.7785 50.9067 62.0749 48.5636C63.3712 46.2206 66.3954 45.2466 66.3954 45.2466C66.5534 44.9611 67.082 48.2025 65.7856 50.5455C64.4892 52.8886 61.646 53.8307 61.646 53.8307Z" fill="#0DB12D"/>
<path d="M61.6479 53.8343C61.5246 53.8896 62.4332 51.7916 64.2037 50.9978C65.9741 50.204 68.1342 50.9262 68.1342 50.9262C68.35 50.8294 67.2313 52.9106 65.4608 53.7044C63.6903 54.4982 61.6479 53.8343 61.6479 53.8343Z" fill="#238636"/>
<path d="M29.1751 44.8335C29.3116 44.7292 28.8122 47.5966 26.8521 49.0941C24.8919 50.5916 21.9939 50.3198 21.9939 50.3198C21.7551 50.5023 22.5203 47.595 24.4804 46.0975C26.4406 44.6 29.1751 44.8335 29.1751 44.8335Z" fill="#0DB12D"/>
</svg>